<?xml version="1.0" encoding="iso-8859-1"?>
<!-- Generator: Adobe Illustrator 21.0.0, SVG Export Plug-In . SVG Version: 6.00 Build 0)  -->
<svg version="1.1" id="Capa_1" xmlns="http://www.w3.org/2000/svg" xmlns:xlink="http://www.w3.org/1999/xlink" x="0px" y="0px"
	 viewBox="0 0 512 512" style="enable-background:new 0 0 512 512;" xml:space="preserve">
<path style="fill:#7E8B96;" d="M358.919,246.223c-0.177,1.32-0.676,2.599-1.497,3.701l-59.721,80.917
	c-1.528,2.079-3.95,3.295-6.528,3.295h-65.875c-2.474,0-4.823-1.133-6.352-3.077l-64.201-81.083
	c-0.873-1.112-1.435-2.412-1.653-3.753c-0.229-1.466-0.062-2.983,0.53-4.408L254.092,1.258C254.436,0.426,255.194,0,255.964,0
	c0.769,0,1.528,0.426,1.871,1.258l100.543,240.724C358.95,243.344,359.127,244.809,358.919,246.223z"/>
<path style="fill:#909BA6;" d="M357.422,249.924l-59.721,80.917c-1.528,2.079-3.95,3.295-6.528,3.295h-35.209V0
	c0.769,0,1.528,0.426,1.871,1.258l100.543,240.724C359.48,244.612,359.116,247.627,357.422,249.924z"/>
<path style="fill:#954C35;" d="M285.549,283.833v153.591c-8.254-6.175-18.493-9.824-29.585-9.824c-3.316,0-6.559,0.322-9.688,0.956
	c-7.349,1.455-14.106,4.543-19.897,8.867V283.833H285.549z"/>
<path style="fill:#AE583E;" d="M285.549,283.833v153.591c-8.254-6.175-18.493-9.824-29.585-9.824c-3.316,0-6.559,0.322-9.688,0.956
	V283.833H285.549z"/>
<path style="fill:#4E5A61;" d="M358.919,246.223c-0.177,1.32-0.676,2.599-1.497,3.701l-59.721,80.917
	c-1.528,2.079-3.95,3.295-6.528,3.295h-65.875c-2.474,0-4.823-1.133-6.352-3.077l-64.201-81.083
	c-0.873-1.112-1.435-2.412-1.653-3.753L358.919,246.223L358.919,246.223z"/>
<g>
	<rect x="226.379" y="379.231" style="fill:#954C35;" width="59.17" height="15.593"/>
	<rect x="226.379" y="353.731" style="fill:#954C35;" width="59.17" height="15.593"/>
</g>
<path style="fill:#5F6C75;" d="M358.919,246.223c-0.086,0.687-0.272,1.379-0.541,2.017c-0.129,0.307-0.294,0.637-0.468,0.936
	c-0.047,0.086-0.38,0.6-0.489,0.748l-59.721,80.917c-1.528,2.079-3.95,3.295-6.528,3.295h-35.209v-87.913
	C255.964,246.223,358.919,246.223,358.919,246.223z"/>
<g>
	<path style="fill:#7C3F2C;" d="M255.964,413.047c-27.329,0-49.482,22.152-49.482,49.482c0,27.319,22.152,49.471,49.482,49.471
		s49.482-22.152,49.482-49.471C305.445,435.199,283.293,413.047,255.964,413.047z M255.964,484.858
		c-12.339,0-22.34-9.99-22.34-22.329c0-12.339,10-22.34,22.34-22.34s22.34,10,22.34,22.34
		C278.303,474.868,268.303,484.858,255.964,484.858z"/>
	<rect x="226.379" y="379.231" style="fill:#7C3F2C;" width="19.897" height="15.593"/>
	<rect x="226.379" y="353.731" style="fill:#7C3F2C;" width="19.897" height="15.593"/>
</g>
<path style="fill:#954C35;" d="M255.964,426.675c-19.772,0-35.853,16.082-35.853,35.853c0,19.761,16.082,35.843,35.853,35.843
	s35.853-16.082,35.853-35.843C291.817,442.757,275.736,426.675,255.964,426.675z M255.964,484.858
	c-12.339,0-22.34-9.99-22.34-22.329c0-12.339,10-22.34,22.34-22.34s22.34,10,22.34,22.34
	C278.303,474.868,268.303,484.858,255.964,484.858z"/>
<g>
</g>
<g>
</g>
<g>
</g>
<g>
</g>
<g>
</g>
<g>
</g>
<g>
</g>
<g>
</g>
<g>
</g>
<g>
</g>
<g>
</g>
<g>
</g>
<g>
</g>
<g>
</g>
<g>
</g>
</svg>
